<?xml version="1.0" encoding="utf-8"?>
<!-- Generator: Adobe Illustrator 11 Build 225, SVG Export Plug-In . SVG Version: 6.0.0 Build 78)  -->
<!DOCTYPE svg PUBLIC "-//W3C//DTD SVG 1.0//EN"    "http://www.w3.org/TR/2001/REC-SVG-20010904/DTD/svg10.dtd" [
	<!ENTITY ns_flows "http://ns.adobe.com/Flows/1.0/">
	<!ENTITY ns_svg "http://www.w3.org/2000/svg">
	<!ENTITY ns_xlink "http://www.w3.org/1999/xlink">
]>
<svg  xmlns="&ns_svg;" xmlns:xlink="&ns_xlink;" xmlns:a="http://ns.adobe.com/AdobeSVGViewerExtensions/3.0/"
	 width="340.331" height="228.227" viewBox="0 0 340.331 228.227" overflow="visible" enable-background="new 0 0 340.331 228.227"
	 xml:space="preserve">
		<g id="レイヤー_1">
			<g>
				<polygon points="69.208,75.523 67.407,76.426 67.407,33.227 68.306,32.773 69.208,33.227 "/>
				<rect x="75.056" y="37.273" width="1.801" height="34.203"/> 
				<polygon points="105.657,96.523 105.657,98.625 67.407,76.426 69.208,75.523 "/>
				<polygon points="142.106,75.523 143.009,75.977 143.009,77.023 105.657,98.625 105.657,96.523 "/>
				<polygon points="134.907,70.727 135.806,72.227 106.106,89.324 105.208,87.824 "/>
				<polygon points="142.106,33.227 143.009,32.773 143.907,33.227 143.907,75.523 143.009,75.977 142.106,75.523 "/>
				<polygon points="105.657,12.227 105.657,10.125 143.009,31.727 143.009,32.773 142.106,33.227 "/>
				<polygon points="105.208,20.926 106.106,19.426 135.806,36.523 134.907,38.023 "/>
				<polygon points="69.208,33.227 68.306,32.773 68.306,31.727 105.657,10.125 105.657,12.227 "/>
				<g>
					<path d="M188.793,3.665c1.425,1.906,2.138,4.344,2.138,7.314c0,3.215-0.815,5.888-2.445,8.019
						c-1.914,2.502-4.643,3.752-8.186,3.752c-3.31,0-5.911-1.094-7.805-3.284c-1.689-2.11-2.533-4.778-2.533-8.003
						c0-2.912,0.723-5.404,2.167-7.476C173.983,1.329,176.727,0,180.358,0C184.155,0,186.968,1.222,188.793,3.665z M186.241,17.391
						c1.146-1.844,1.721-3.964,1.721-6.36c0-2.533-0.662-4.573-1.984-6.118c-1.324-1.545-3.133-2.318-5.427-2.318
						c-2.227,0-4.042,0.766-5.448,2.296s-2.109,3.788-2.109,6.771c0,2.387,0.603,4.399,1.809,6.038
						c1.206,1.639,3.161,2.458,5.866,2.458C183.235,20.156,185.093,19.234,186.241,17.391z"/>
				</g>
				<polygon points="180.509,96.523 180.509,97.574 179.608,98.023 143.009,77.023 143.009,75.977 143.907,75.523 "/>
				<polygon points="216.956,75.523 217.858,75.977 217.858,77.023 181.407,98.023 180.509,97.574 180.509,96.523 "/>
				<polygon points="209.608,70.727 210.509,72.227 180.956,89.324 180.056,87.824 "/>
				<polygon points="216.956,33.227 217.858,32.773 218.759,33.227 218.759,75.523 217.858,75.977 216.956,75.523 "/>
				<polygon points="193.706,19.875 194.608,18.227 217.858,31.727 217.858,32.773 216.956,33.227 "/>
				<polygon points="143.907,33.227 143.009,32.773 143.009,31.727 165.958,18.523 166.856,20.023 "/>
				<polygon points="255.358,96.523 255.358,98.625 217.858,77.023 217.858,75.977 218.759,75.523 "/>
				<polygon points="291.806,75.523 293.608,76.426 255.358,98.625 255.358,96.523 "/>
				<polygon points="284.456,70.727 285.358,72.227 255.806,89.324 254.907,87.824 "/>
				<polygon points="291.806,33.227 293.608,32.324 293.608,76.426 291.806,75.523 "/>
				<polygon points="255.358,12.227 255.358,10.125 293.608,32.324 291.806,33.227 "/>
				<polygon points="218.759,33.227 217.858,32.773 217.858,31.727 255.358,10.125 255.358,12.227 "/>
				<polygon points="226.108,38.023 225.206,36.523 254.907,19.426 255.806,20.926 "/>
				<g>
					<path d="M338.193,3.813c1.425,1.906,2.138,4.344,2.138,7.314c0,3.215-0.815,5.888-2.445,8.019
						c-1.913,2.502-4.642,3.752-8.186,3.752c-3.31,0-5.911-1.094-7.805-3.284c-1.688-2.11-2.533-4.778-2.533-8.003
						c0-2.912,0.722-5.404,2.167-7.476c1.854-2.658,4.598-3.987,8.229-3.987C333.557,0.148,336.367,1.37,338.193,3.813z
						 M335.641,17.539c1.148-1.844,1.722-3.964,1.722-6.36c0-2.533-0.661-4.573-1.985-6.118c-1.322-1.545-3.131-2.318-5.426-2.318
						c-2.227,0-4.043,0.766-5.449,2.296s-2.108,3.788-2.108,6.771c0,2.387,0.603,4.399,1.809,6.038
						c1.206,1.639,3.161,2.458,5.866,2.458C332.637,20.305,334.494,19.383,335.641,17.539z"/>
				</g>
				<polygon points="313.556,15.227 314.456,16.727 289.259,31.273 288.358,29.773 "/>
				<polygon points="317.456,21.977 318.358,23.477 293.157,38.023 292.259,36.523 "/>
				<g>
					<path d="M0,0.742h2.938v8.906H14V0.742h2.938v21.531H14V12.211H2.938v10.062H0V0.742z"/>
					<path d="M39.309,3.813c1.425,1.906,2.138,4.344,2.138,7.314c0,3.215-0.815,5.888-2.445,8.019
						c-1.914,2.502-4.642,3.752-8.186,3.752c-3.31,0-5.911-1.094-7.805-3.284c-1.689-2.11-2.533-4.778-2.533-8.003
						c0-2.912,0.722-5.404,2.167-7.476c1.854-2.658,4.598-3.987,8.229-3.987C34.671,0.148,37.483,1.37,39.309,3.813z M36.756,17.539
						c1.147-1.844,1.721-3.964,1.721-6.36c0-2.533-0.662-4.573-1.985-6.118s-3.132-2.318-5.426-2.318
						c-2.227,0-4.042,0.766-5.449,2.296s-2.109,3.788-2.109,6.771c0,2.387,0.603,4.399,1.809,6.038
						c1.206,1.639,3.161,2.458,5.866,2.458C33.751,20.305,35.609,19.383,36.756,17.539z"/>
				</g>
				<polygon points="44.157,19.875 45.056,18.375 68.306,31.727 68.306,32.773 67.407,33.227 "/>
				<polygon points="181.407,140.174 180.509,140.773 179.608,140.174 179.608,98.023 180.509,97.574 181.407,98.023 "/>
				<polygon points="143.907,162.826 142.106,161.773 179.608,140.174 180.509,140.773 180.509,141.826 "/>
				<polygon points="151.259,167.625 150.356,166.125 180.056,149.023 180.956,150.523 "/>
				<polygon points="143.907,204.977 142.106,206.023 142.106,161.773 143.907,162.826 "/>
				<polygon points="180.509,226.125 180.509,228.227 142.106,206.023 143.907,204.977 "/>
				<polygon points="180.956,217.424 180.056,218.924 150.356,201.826 151.259,200.326 "/>
				<polygon points="216.956,204.977 218.759,206.023 180.509,228.227 180.509,226.125 "/>
				<polygon points="216.956,162.826 217.858,162.375 218.759,162.826 218.759,206.023 216.956,204.977 "/>
				<rect x="209.157" y="166.875" width="1.799" height="34.201"/> 
				<polygon points="180.509,141.826 180.509,140.773 181.407,140.174 217.858,161.326 217.858,162.375 216.956,162.826 "/>
				<g>
					<path d="M261.927,131.748c1.488,1.434,2.314,3.061,2.479,4.883h-2.844c-0.317-1.383-0.95-2.479-1.897-3.287
						c-0.949-0.809-2.279-1.213-3.992-1.213c-2.088,0-3.773,0.744-5.059,2.234c-1.285,1.488-1.927,3.771-1.927,6.848
						c0,2.52,0.579,4.562,1.737,6.13s2.886,2.351,5.184,2.351c2.113,0,3.725-0.821,4.83-2.464c0.586-0.864,1.023-2.002,1.312-3.411
						h2.844c-0.251,2.267-1.081,4.166-2.491,5.699c-1.69,1.847-3.97,2.77-6.838,2.77c-2.473,0-4.549-0.758-6.229-2.273
						c-2.212-2.004-3.317-5.099-3.317-9.283c0-3.178,0.831-5.783,2.493-7.816c1.798-2.209,4.277-3.314,7.438-3.314
						C258.346,129.6,260.438,130.316,261.927,131.748z"/>
					<path d="M286.059,133.264c1.425,1.906,2.138,4.344,2.138,7.314c0,3.216-0.815,5.889-2.445,8.02
						c-1.914,2.502-4.643,3.752-8.186,3.752c-3.31,0-5.911-1.094-7.805-3.283c-1.689-2.111-2.533-4.779-2.533-8.004
						c0-2.912,0.723-5.404,2.167-7.476c1.854-2.658,4.598-3.987,8.229-3.987C281.421,129.6,284.233,130.821,286.059,133.264z
						 M283.507,146.99c1.146-1.844,1.721-3.964,1.721-6.36c0-2.533-0.662-4.573-1.984-6.118c-1.324-1.545-3.133-2.318-5.427-2.318
						c-2.227,0-4.042,0.766-5.448,2.297c-1.406,1.53-2.109,3.787-2.109,6.771c0,2.387,0.603,4.399,1.809,6.038
						s3.161,2.457,5.866,2.457C280.501,149.756,282.358,148.834,283.507,146.99z"/>
					<path d="M309.394,133.264c1.425,1.906,2.138,4.344,2.138,7.314c0,3.216-0.815,5.889-2.445,8.02
						c-1.913,2.502-4.642,3.752-8.186,3.752c-3.31,0-5.911-1.094-7.805-3.283c-1.688-2.111-2.533-4.779-2.533-8.004
						c0-2.912,0.722-5.404,2.167-7.476c1.854-2.658,4.598-3.987,8.229-3.987C304.757,129.6,307.567,130.821,309.394,133.264z
						 M306.841,146.99c1.148-1.844,1.722-3.964,1.722-6.36c0-2.533-0.661-4.573-1.985-6.118c-1.322-1.545-3.131-2.318-5.426-2.318
						c-2.227,0-4.043,0.766-5.449,2.297c-1.406,1.53-2.108,3.787-2.108,6.771c0,2.387,0.603,4.399,1.809,6.038
						s3.161,2.457,5.866,2.457C303.837,149.756,305.694,148.834,306.841,146.99z"/>
					<path d="M315.085,130.193h2.938v8.906h11.062v-8.906h2.938v21.531h-2.938v-10.062h-11.062v10.062h-2.938V130.193z"/>
				</g>
				<polygon points="241.407,147.674 242.456,149.326 218.759,162.826 217.858,162.375 217.858,161.326 "/>
			</g>
		</g>
	</svg>
