<svg width="800" height="320" viewBox="0 0 800 320" xmlns="http://www.w3.org/2000/svg" role="img" aria-labelledby="title desc">
  <title id="title">White Intersecting Rising Curves</title>
  <desc id="desc">Пять белых кривых, пересекающихся и поднимающихся вверх вправо.</desc>

  <!-- Все кривые белые и пересекаются в центральной зоне -->
  <path d="M 0 290 C 180 260, 260 320, 380 180 S 660 60, 800 40"
        fill="none" stroke="#fff" stroke-width="4" stroke-linecap="round"/>
  <path d="M 0 260 C 160 240, 260 140, 420 200 S 700 220, 800 70"
        fill="none" stroke="#fff" stroke-width="4" stroke-linecap="round"/>
  <path d="M 0 235 C 140 300, 320 160, 400 230 S 640 130, 800 50"
        fill="none" stroke="#fff" stroke-width="4" stroke-linecap="round"/>
  <path d="M 0 210 C 120 150, 300 220, 420 150 S 680 90, 800 30"
        fill="none" stroke="#fff" stroke-width="4" stroke-linecap="round"/>
  <path d="M 0 185 C 200 290, 320 120, 460 210 S 720 140, 800 80"
        fill="none" stroke="#fff" stroke-width="4" stroke-linecap="round"/>
</svg>
